<?xml version="1.0" encoding="UTF-8" standalone="no"?>
<!DOCTYPE svg PUBLIC "-//W3C//DTD SVG 20010904//EN"
              "http://www.w3.org/TR/2001/REC-SVG-20010904/DTD/svg10.dtd">

<svg xmlns="http://www.w3.org/2000/svg"
     width="100%" height="100%"
     viewBox="0 0 735 283">
  <path id="Selection #1"
        fill="#33aa8c" stroke="none" stroke-width="1"
        d="M 467.00,26.47
           C 450.23,30.45 448.57,44.25 456.21,51.78
             461.40,56.89 471.14,57.78 478.00,56.54
             496.10,53.25 494.77,37.35 488.78,31.21
             483.36,25.67 474.17,25.47 467.00,26.47 Z
           M 170.00,114.00
           C 170.00,114.00 173.46,138.00 173.46,138.00
             175.49,148.76 179.82,159.77 185.69,169.00
             206.81,202.20 248.47,224.15 285.00,236.33
             322.14,248.71 360.07,257.00 399.00,261.16
             399.00,261.16 432.00,264.09 432.00,264.09
             432.00,264.09 442.00,265.00 442.00,265.00
             442.00,265.00 464.00,266.00 464.00,266.00
             464.00,266.00 501.00,266.00 501.00,266.00
             501.00,266.00 520.00,265.00 520.00,265.00
             520.00,265.00 569.00,260.27 569.00,260.27
             590.37,257.19 617.22,252.03 637.00,243.57
             651.43,237.40 672.66,226.18 672.66,208.00
             672.66,203.42 670.67,198.20 669.00,194.00
             664.21,196.25 660.51,200.13 656.00,202.94
             650.20,206.55 642.46,209.58 636.00,211.95
             614.47,219.84 579.07,226.40 556.00,229.15
             556.00,229.15 500.00,234.00 500.00,234.00
             500.00,234.00 485.00,235.00 485.00,235.00
             485.00,235.00 441.00,235.00 441.00,235.00
             441.00,235.00 421.00,234.00 421.00,234.00
             421.00,234.00 400.00,232.17 400.00,232.17
             373.38,229.59 347.98,225.63 322.00,219.13
             289.29,210.94 253.08,196.15 229.00,172.00
             218.32,161.28 206.93,145.13 204.01,130.00
             203.60,128.43 203.30,126.88 204.01,125.39
             205.11,123.55 216.87,117.47 220.00,115.10
             230.70,107.00 237.83,96.61 238.82,83.00
             239.02,80.15 238.57,77.78 238.08,75.00
             234.63,55.37 218.98,45.95 201.00,41.15
             176.87,34.71 143.71,35.86 120.00,43.67
             109.30,47.19 97.15,53.12 89.17,61.17
             71.47,79.02 73.17,109.61 93.00,116.21
             95.18,116.94 99.72,117.83 102.00,117.82
             105.73,117.81 114.30,115.91 115.59,111.89
             116.36,109.51 113.20,103.03 112.51,100.00
             110.76,92.20 110.70,84.47 113.88,77.00
             126.08,48.30 172.13,42.94 191.91,61.30
             210.44,78.50 198.74,113.37 170.00,114.00 Z
           M 58.00,59.45
           C 54.00,60.20 50.25,60.94 47.43,64.21
             45.63,66.30 45.16,68.32 45.05,71.00
             44.67,79.74 51.19,83.17 59.00,83.81
             66.14,84.40 75.10,81.09 75.89,73.00
             76.20,69.84 75.69,66.67 73.57,64.21
             69.93,59.99 63.25,59.00 58.00,59.45 Z
           M 177.00,71.00
           C 173.57,54.93 145.02,57.95 136.53,68.09
             130.92,74.78 128.70,87.48 127.00,96.00
             127.00,96.00 116.74,149.00 116.74,149.00
             116.08,152.54 114.56,160.07 112.91,163.00
             110.95,166.50 107.63,168.79 108.17,171.91
             109.12,177.49 119.53,178.94 124.00,179.00
             130.61,179.08 137.30,179.34 143.00,175.35
             151.61,169.32 154.06,158.68 156.00,149.00
             156.00,149.00 166.00,98.00 166.00,98.00
             167.96,88.20 168.57,77.39 177.00,71.00 Z
           M 537.00,83.00
           C 537.00,83.00 539.00,69.00 539.00,69.00
             539.00,69.00 517.00,71.42 517.00,71.42
             514.70,71.74 510.50,71.86 508.93,73.60
             507.37,75.34 506.50,81.54 506.08,84.00
             506.08,84.00 501.80,106.00 501.80,106.00
             501.80,106.00 491.39,161.00 491.39,161.00
             489.30,172.13 486.48,183.65 486.04,195.00
             485.92,198.04 486.12,201.06 486.93,204.00
             491.33,219.97 512.07,216.05 523.00,210.00
             520.30,194.93 523.39,191.24 524.00,178.00
             538.69,179.94 553.72,179.61 567.00,172.13
             587.32,160.68 598.73,135.82 599.00,113.00
             599.11,103.28 598.94,92.98 594.67,84.00
             587.45,68.81 568.82,64.77 554.00,70.47
             546.52,73.34 542.53,77.49 537.00,83.00 Z
           M 316.00,142.00
           C 313.40,145.41 311.64,147.49 308.00,149.89
             299.63,155.42 283.56,158.48 276.85,148.96
             272.93,143.39 274.00,134.63 274.00,128.00
             292.53,128.00 314.29,127.68 327.90,112.99
             336.36,103.84 338.46,85.43 328.82,76.33
             323.06,70.90 314.67,69.09 307.00,69.00
             307.00,69.00 295.00,69.00 295.00,69.00
             279.05,69.19 263.31,77.55 253.52,90.00
             244.76,101.13 239.07,117.85 239.00,132.00
             238.93,147.28 238.51,160.96 252.00,171.47
             262.29,179.48 273.77,179.14 286.00,179.00
             297.83,178.86 311.29,173.90 318.36,164.00
             323.19,157.24 324.50,146.27 316.00,142.00 Z
           M 412.00,139.00
           C 404.12,156.29 380.01,161.94 374.11,145.00
             373.09,142.09 373.04,140.01 373.00,137.00
             372.85,124.27 375.80,111.75 380.60,100.00
             383.18,93.70 391.36,79.30 399.90,81.99
             407.20,84.30 404.47,95.63 403.34,101.00
             402.66,104.21 400.92,108.21 405.13,109.78
             406.67,110.06 410.29,110.01 412.00,109.78
             423.46,109.88 432.68,104.37 432.99,92.00
             433.39,75.66 422.07,69.18 407.00,69.00
             394.07,68.85 387.38,68.39 375.00,73.45
             352.40,82.68 338.04,108.14 338.00,132.00
             338.00,132.00 338.00,141.00 338.00,141.00
             338.02,151.70 340.27,161.85 348.30,169.54
             363.13,183.74 397.93,181.71 412.96,168.67
             422.27,160.60 425.90,141.98 412.00,139.00 Z
           M 477.00,165.00
           C 465.13,160.07 469.61,148.97 471.60,139.00
             471.60,139.00 480.40,95.00 480.40,95.00
             480.40,95.00 485.00,69.00 485.00,69.00
             485.00,69.00 459.00,71.42 459.00,71.42
             456.85,71.71 451.01,71.95 449.56,73.02
             446.83,75.05 444.78,90.04 444.00,94.00
             444.00,94.00 433.00,156.00 433.00,156.00
             432.92,163.43 432.52,170.11 439.10,175.20
             447.68,181.84 473.46,181.66 477.00,165.00 Z
           M 683.00,142.00
           C 680.40,145.41 678.64,147.49 675.00,149.89
             666.63,155.42 650.56,158.48 643.85,148.96
             639.93,143.39 641.00,134.63 641.00,128.00
             659.53,128.00 681.29,127.68 694.90,112.99
             703.36,103.84 705.46,85.43 695.82,76.33
             690.06,70.90 681.67,69.09 674.00,69.00
             674.00,69.00 662.00,69.00 662.00,69.00
             646.05,69.19 630.31,77.55 620.52,90.00
             611.76,101.13 606.07,117.85 606.00,132.00
             605.93,147.28 605.51,160.96 619.00,171.47
             629.29,179.48 640.77,179.14 653.00,179.00
             664.83,178.86 678.29,173.90 685.36,164.00
             690.19,157.24 691.50,146.27 683.00,142.00 Z
           M 276.00,118.00
           C 276.27,112.23 277.44,107.48 279.19,102.00
             281.43,95.02 284.81,86.96 291.00,82.65
             294.91,79.93 299.99,78.96 303.27,83.23
             305.66,86.35 305.44,91.30 304.98,95.00
             303.06,110.45 290.57,117.87 276.00,118.00 Z
           M 643.00,118.00
           C 643.27,112.23 644.44,107.48 646.19,102.00
             648.43,95.02 651.81,86.96 658.00,82.65
             661.91,79.93 666.99,78.96 670.27,83.23
             672.66,86.35 672.44,91.30 671.98,95.00
             670.06,110.45 657.57,117.87 643.00,118.00 Z
           M 553.00,84.35
           C 562.47,83.47 563.90,88.73 564.00,97.00
             564.21,114.52 562.34,132.43 556.31,149.00
             553.72,156.09 549.14,164.61 541.00,166.06
             536.81,166.81 529.55,165.78 528.33,160.90
             527.54,157.74 530.26,145.89 530.92,142.00
             530.92,142.00 539.34,100.00 539.34,100.00
             541.93,92.60 544.99,86.67 553.00,84.35 Z
           M 64.00,167.00
           C 54.91,162.43 58.60,154.01 60.20,146.00
             60.20,146.00 70.00,93.00 70.00,93.00
             70.00,93.00 50.00,94.72 50.00,94.72
             48.02,94.95 44.10,94.85 42.59,96.02
             40.60,97.57 39.00,108.99 38.40,112.00
             38.40,112.00 30.00,159.00 30.00,159.00
             29.93,165.00 29.16,170.31 34.11,174.72
             40.51,180.44 55.99,179.26 61.57,172.79
             63.30,170.79 63.48,169.44 64.00,167.00 Z" />
</svg>
